<svg xmlns="http://www.w3.org/2000/svg" xmlns:xlink="http://www.w3.org/1999/xlink" width="300" height="121"><defs><linearGradient id="a" x1="85.865%" x2="20.693%" y1="63.203%" y2="-16.732%"><stop offset="0%" stop-color="#003370"/><stop offset="100%" stop-color="#003370"/></linearGradient><linearGradient id="b" x1="49.946%" x2="49.946%" y1="21.014%" y2="189.283%"><stop offset="0%" stop-color="#003370"/><stop offset="7.04%" stop-color="#003F7D"/><stop offset="21.65%" stop-color="#005192"/><stop offset="36.08%" stop-color="#005C9E"/><stop offset="50%" stop-color="#0060A2"/><stop offset="63.92%" stop-color="#005C9E"/><stop offset="78.35%" stop-color="#005192"/><stop offset="92.96%" stop-color="#003F7D"/><stop offset="100%" stop-color="#003370"/></linearGradient><linearGradient id="c" x1="9.794%" x2="56.177%" y1="107.969%" y2="8.941%"><stop offset="0%" stop-color="#00215E"/><stop offset="8.59%" stop-color="#00316F"/><stop offset="22.67%" stop-color="#004583"/><stop offset="36.58%" stop-color="#005090"/><stop offset="50%" stop-color="#005494"/><stop offset="63.42%" stop-color="#005090"/><stop offset="77.33%" stop-color="#004583"/><stop offset="91.41%" stop-color="#00316F"/><stop offset="100%" stop-color="#00215E"/></linearGradient><linearGradient id="d" x1="74.726%" x2="-8.93%" y1="75.558%" y2="7.613%"><stop offset="0%" stop-color="#000747"/><stop offset="2.84%" stop-color="#000F4F"/><stop offset="13.53%" stop-color="#002867"/><stop offset="24.68%" stop-color="#003A79"/><stop offset="36.47%" stop-color="#004583"/><stop offset="50%" stop-color="#004887"/><stop offset="61.77%" stop-color="#003F7D"/><stop offset="81.25%" stop-color="#002665"/><stop offset="100%" stop-color="#000747"/></linearGradient><linearGradient id="e" x1="71.348%" x2="18.643%" y1="110.011%" y2="-6.247%"><stop offset="0%" stop-color="#000747"/><stop offset="2.84%" stop-color="#000F4F"/><stop offset="13.53%" stop-color="#002867"/><stop offset="24.68%" stop-color="#003A79"/><stop offset="36.47%" stop-color="#004583"/><stop offset="50%" stop-color="#004887"/><stop offset="61.77%" stop-color="#003F7D"/><stop offset="81.25%" stop-color="#002665"/><stop offset="100%" stop-color="#000747"/></linearGradient><linearGradient id="f" x1="50.006%" x2="50.006%" y1="18.581%" y2="167.371%"><stop offset="0%" stop-color="#003370"/><stop offset="7.04%" stop-color="#003F7D"/><stop offset="21.65%" stop-color="#005192"/><stop offset="36.08%" stop-color="#005C9E"/><stop offset="50%" stop-color="#0060A2"/><stop offset="63.92%" stop-color="#005C9E"/><stop offset="78.35%" stop-color="#005192"/><stop offset="92.96%" stop-color="#003F7D"/><stop offset="100%" stop-color="#003370"/></linearGradient><linearGradient id="g" x1=".074%" x2="99.813%" y1="50.179%" y2="50.179%"><stop offset="0%" stop-color="#003370"/><stop offset="100%" stop-color="#003370"/></linearGradient><linearGradient id="h" x1="49.998%" x2="49.998%" y1="118.567%" y2="8.616%"><stop offset="0%" stop-color="#00215E"/><stop offset="50%" stop-color="#005494"/><stop offset="69.34%" stop-color="#005291"/><stop offset="80.38%" stop-color="#004A89"/><stop offset="89.32%" stop-color="#003D7B"/><stop offset="97.1%" stop-color="#002A68"/><stop offset="100%" stop-color="#00215E"/></linearGradient><linearGradient id="i" x1="33.667%" x2="190.549%" y1="90.09%" y2="-198.82%"><stop offset="0%" stop-color="#0066A7"/><stop offset="8.24%" stop-color="#007EBF"/><stop offset="16.75%" stop-color="#0093D4"/><stop offset="25.27%" stop-color="#00A4E4"/><stop offset="33.7%" stop-color="#00B0F0"/><stop offset="42%" stop-color="#00B7F7"/><stop offset="50%" stop-color="#00B9F9"/><stop offset="58%" stop-color="#00B7F7"/><stop offset="66.3%" stop-color="#00B0F0"/><stop offset="74.73%" stop-color="#00A4E4"/><stop offset="83.25%" stop-color="#0093D4"/><stop offset="91.76%" stop-color="#007EBF"/><stop offset="100%" stop-color="#0066A7"/></linearGradient><linearGradient id="j" x1="19.293%" x2="80.563%" y1="94.158%" y2="26.377%"><stop offset="0%" stop-color="#005A9C"/><stop offset="8.22%" stop-color="#006CAE"/><stop offset="18.08%" stop-color="#0079BD"/><stop offset="30.07%" stop-color="#0081C5"/><stop offset="50%" stop-color="#0083C8"/><stop offset="69.93%" stop-color="#0081C5"/><stop offset="81.92%" stop-color="#0079BD"/><stop offset="91.78%" stop-color="#006CAE"/><stop offset="100%" stop-color="#005A9C"/></linearGradient><linearGradient id="k" x1="23.242%" x2="232.25%" y1="23.75%" y2="311.022%"><stop offset="0%" stop-color="#005A9C"/><stop offset="1.76%" stop-color="#005FA0"/><stop offset="14.07%" stop-color="#0079BA"/><stop offset="26.31%" stop-color="#008DCC"/><stop offset="38.37%" stop-color="#0098D7"/><stop offset="50%" stop-color="#009CDB"/><stop offset="61.63%" stop-color="#0098D7"/><stop offset="73.69%" stop-color="#008DCC"/><stop offset="85.93%" stop-color="#0079BA"/><stop offset="98.24%" stop-color="#005FA0"/><stop offset="100%" stop-color="#005A9C"/></linearGradient><linearGradient id="l" x1="81.605%" x2="26.143%" y1="94.259%" y2="7.836%"><stop offset="0%" stop-color="#005A9C"/><stop offset="2.57%" stop-color="#005FA0"/><stop offset="20.53%" stop-color="#0079BA"/><stop offset="38.4%" stop-color="#008DCC"/><stop offset="55.99%" stop-color="#0098D7"/><stop offset="72.96%" stop-color="#009CDB"/><stop offset="79.25%" stop-color="#0098D7"/><stop offset="85.77%" stop-color="#008DCC"/><stop offset="92.39%" stop-color="#0079BA"/><stop offset="99.05%" stop-color="#005FA0"/><stop offset="100%" stop-color="#005A9C"/></linearGradient><linearGradient id="m" x1="57.177%" x2="31.011%" y1="92.411%" y2="16.148%"><stop offset="0%" stop-color="#005A9C"/><stop offset="8.22%" stop-color="#006CAE"/><stop offset="18.08%" stop-color="#0079BD"/><stop offset="30.07%" stop-color="#0081C5"/><stop offset="50%" stop-color="#0083C8"/><stop offset="69.93%" stop-color="#0081C5"/><stop offset="81.92%" stop-color="#0079BD"/><stop offset="91.78%" stop-color="#006CAE"/><stop offset="100%" stop-color="#005A9C"/></linearGradient><linearGradient id="n" x1="98.19%" x2="-283.188%" y1="49.985%" y2="49.985%"><stop offset="0%" stop-color="#0066A7"/><stop offset="1.28%" stop-color="#006AAB"/><stop offset="11.21%" stop-color="#0084C7"/><stop offset="21.15%" stop-color="#09D"/><stop offset="30.99%" stop-color="#00A7ED"/><stop offset="40.66%" stop-color="#00B0F6"/><stop offset="50%" stop-color="#00B3F9"/><stop offset="59.34%" stop-color="#00B0F6"/><stop offset="69.01%" stop-color="#00A7ED"/><stop offset="78.85%" stop-color="#09D"/><stop offset="88.79%" stop-color="#0084C7"/><stop offset="98.72%" stop-color="#006AAB"/><stop offset="100%" stop-color="#0066A7"/></linearGradient><linearGradient id="o" x1="-11.134%" x2="97.871%" y1="46.083%" y2="51.509%"><stop offset="0%" stop-color="#004E8D"/><stop offset=".61%" stop-color="#00508E"/><stop offset="9.12%" stop-color="#0062A2"/><stop offset="18.76%" stop-color="#006EB1"/><stop offset="30.49%" stop-color="#0076B9"/><stop offset="50%" stop-color="#0078BC"/><stop offset="69.51%" stop-color="#0076B9"/><stop offset="81.24%" stop-color="#006EB1"/><stop offset="90.88%" stop-color="#0062A2"/><stop offset="99.39%" stop-color="#00508E"/><stop offset="100%" stop-color="#004E8D"/></linearGradient><linearGradient id="p" x1=".001%" x2="80.736%" y1="50.06%" y2="50.06%"><stop offset="0%" stop-color="#0066A7"/><stop offset="2.25%" stop-color="#006AAB"/><stop offset="19.71%" stop-color="#0084C7"/><stop offset="37.18%" stop-color="#09D"/><stop offset="54.47%" stop-color="#00A7ED"/><stop offset="71.47%" stop-color="#00B0F6"/><stop offset="87.88%" stop-color="#00B3F9"/><stop offset="90.15%" stop-color="#00B0F6"/><stop offset="92.49%" stop-color="#00A7ED"/><stop offset="94.87%" stop-color="#09D"/><stop offset="97.28%" stop-color="#0084C7"/><stop offset="99.69%" stop-color="#006AAB"/><stop offset="100%" stop-color="#0066A7"/></linearGradient><linearGradient id="q" x1="90.639%" x2="3.515%" y1="86.532%" y2="8.049%"><stop offset="0%" stop-color="#003370"/><stop offset="100%" stop-color="#003370"/></linearGradient><linearGradient id="r" x1="87.582%" x2="1.907%" y1="61.426%" y2="36.823%"><stop offset="0%" stop-color="#0066A7"/><stop offset="3.82%" stop-color="#0073B4"/><stop offset="11.77%" stop-color="#0087C7"/><stop offset="20.81%" stop-color="#0095D5"/><stop offset="31.77%" stop-color="#009DDE"/><stop offset="50%" stop-color="#00A0E0"/><stop offset="68.23%" stop-color="#009DDE"/><stop offset="79.19%" stop-color="#0095D5"/><stop offset="88.23%" stop-color="#0087C7"/><stop offset="96.18%" stop-color="#0073B4"/><stop offset="100%" stop-color="#0066A7"/></linearGradient><linearGradient id="s" x1="85.495%" x2="13.883%" y1="11.573%" y2="80.502%"><stop offset="0%" stop-color="#0066A7"/><stop offset="12.38%" stop-color="#007EBF"/><stop offset="25.16%" stop-color="#0093D4"/><stop offset="37.97%" stop-color="#00A4E4"/><stop offset="50.64%" stop-color="#00B0F0"/><stop offset="63.1%" stop-color="#00B7F7"/><stop offset="75.13%" stop-color="#00B9F9"/><stop offset="79.11%" stop-color="#00B7F7"/><stop offset="83.24%" stop-color="#00B0F0"/><stop offset="87.43%" stop-color="#00A4E4"/><stop offset="91.67%" stop-color="#0093D4"/><stop offset="95.9%" stop-color="#007EBF"/><stop offset="100%" stop-color="#0066A7"/></linearGradient><linearGradient id="t" x1="97.113%" x2="8.236%" y1="4.798%" y2="94.313%"><stop offset="0%" stop-color="#003370"/><stop offset="100%" stop-color="#003370"/></linearGradient><linearGradient id="u" x1="81.674%" x2="10.033%" y1="12.782%" y2="86.811%"><stop offset="0%" stop-color="#0066A7"/><stop offset="3.82%" stop-color="#0073B4"/><stop offset="11.77%" stop-color="#0087C7"/><stop offset="20.81%" stop-color="#0095D5"/><stop offset="31.77%" stop-color="#009DDE"/><stop offset="50%" stop-color="#00A0E0"/><stop offset="68.23%" stop-color="#009DDE"/><stop offset="79.19%" stop-color="#0095D5"/><stop offset="88.23%" stop-color="#0087C7"/><stop offset="96.18%" stop-color="#0073B4"/><stop offset="100%" stop-color="#0066A7"/></linearGradient><linearGradient id="v" x1="247.174%" x2="46.517%" y1="-227.254%" y2="55.16%"><stop offset="0%" stop-color="#0066A7"/><stop offset="3.82%" stop-color="#0073B4"/><stop offset="11.77%" stop-color="#0087C7"/><stop offset="20.81%" stop-color="#0095D5"/><stop offset="31.77%" stop-color="#009DDE"/><stop offset="50%" stop-color="#00A0E0"/><stop offset="68.23%" stop-color="#009DDE"/><stop offset="79.19%" stop-color="#0095D5"/><stop offset="88.23%" stop-color="#0087C7"/><stop offset="96.18%" stop-color="#0073B4"/><stop offset="100%" stop-color="#0066A7"/></linearGradient><linearGradient id="w" x1="26.31%" x2="74.804%" y1="-.104%" y2="103.873%"><stop offset="0%" stop-color="#003370"/><stop offset="100%" stop-color="#003370"/></linearGradient><linearGradient id="x" x1="44.749%" x2="58.027%" y1="-.487%" y2="102.648%"><stop offset="0%" stop-color="#004E8D"/><stop offset="2.44%" stop-color="#005A99"/><stop offset="8.88%" stop-color="#0074B3"/><stop offset="15.99%" stop-color="#0087C7"/><stop offset="24.03%" stop-color="#0095D5"/><stop offset="33.78%" stop-color="#009EDD"/><stop offset="50%" stop-color="#00A0E0"/><stop offset="67.18%" stop-color="#009DDE"/><stop offset="77.51%" stop-color="#0095D5"/><stop offset="86.03%" stop-color="#0087C7"/><stop offset="93.51%" stop-color="#0073B4"/><stop offset="100%" stop-color="#005A9C"/></linearGradient><path id="y" d="M0 .28h171.085v85.788H0z"/></defs><g fill="none" fill-rule="evenodd"><path fill="url(#a)" d="M55 52.3l7-.3-3.472 7z" transform="translate(0 1)"/><path fill="url(#b)" d="M86 54c26.22 4.262 29.957 10.827 29.957 10.827.057.403.057.807 0 1.21-.058.23-.115.46-.23.633-.173.346-2.76 5.76-19.665 9.33L86 54z" transform="translate(0 1)"/><path fill="url(#c)" d="M18.681 75c-6.013 16.016-2.89 21.179-2.717 21.472.115.235.231.41.462.528.405-.059.81-.117 1.214-.235 0 0 10.755-.528 23.36-18.714L18.681 75z" transform="translate(0 1)"/><path fill="url(#d)" d="M59 14.728C44.519-.93 37.482-.07 37.074.045c-.232 0-.465.057-.697.172-.466.23-1.047 1.835-1.047 1.835S32.305 10.713 44.577 34L59 14.728z" transform="translate(0 1)"/><path fill="url(#e)" d="M71 75.47c19.428 22.52 26.248 21.297 26.248 21.297.458.117.86.175 1.318.233.172-.175.344-.35.458-.524.287-.407 5.788-9.542-12.837-42.476L71 75.47z" transform="translate(0 1)"/><path fill="url(#f)" d="M46 79C5.305 77.322.408 67.252.233 66.731.117 66.558 0 66.326 0 66.095c.058-.695 1.574-1.968 1.574-1.968S12.418 57.53 30.375 54L46 79z" transform="translate(0 1)"/><path fill="url(#g)" d="M57.348 14C52.19 19.383 47.388 25.05 43 31h1.067C47.27 27.09 55.273 17.513 58 14.68l-.652-.68z" opacity=".4" transform="translate(0 1)"/><path fill="url(#h)" d="M73.672 32c10.731-25.07 6.51-30.815 6.51-30.815-.06-.349-.177-.639-.294-.987a1.575 1.575 0 0 0-.704-.174C78.657-.034 67.514-1.485 44 31.13l29.672.87z" transform="translate(0 1)"/><path fill="url(#i)" d="M58 94.127c-14.344 15.842-21.313 14.903-21.72 14.844a5.166 5.166 0 0 1-1.684-.88L17 96.767C24.375 95.183 33.493 86.265 43.075 75L58 94.127z" transform="translate(0 1)"/><path fill="url(#j)" d="M59 95.127c-14.489 15.842-21.528 14.903-21.939 14.844a5.236 5.236 0 0 1-1.7-.88L17 97.181C24.45 95.597 34.246 87.324 43.925 76L59 95.127z" transform="translate(0 1)"/><path fill="url(#k)" d="M19.929 34c-6.32-16.28-3.16-21.459-2.988-21.746.402-.46.92-.863 1.436-1.208L35.785 0C34.29 7.134 38.14 18.064 44 30.778L19.929 34z" transform="translate(0 1)"/><path fill="url(#l)" d="M57.14 54A198.02 198.02 0 0 0 31 55.901c.288.519 4.318 7.26 7.255 11.754 27.983 43.096 41.053 41.425 41.629 41.31a5.139 5.139 0 0 0 1.67-.864L99 96.98C87.139 94.503 70.614 75.145 57.14 54z" transform="translate(0 1)"/><path fill="url(#m)" d="M19.929 35c-6.32-16.453-3.16-21.686-2.988-21.977.402-.465.92-.872 1.436-1.22L36.36 0C34.865 7.21 38.083 18.895 44 31.744L19.929 35z" transform="translate(0 1)"/><path fill="url(#n)" d="M86 56.029C99.59 58 110.875 60.783 116 66V45.13c0-.637-.058-1.275-.23-1.855-.173-.347-2.707-5.68-19.117-9.275L86 56.029z" transform="translate(0 1)"/><path fill="url(#o)" d="M86 55.176c13.59 1.989 24.875 5.617 30 10.824V44.234c0-.644-.058-1.287-.23-1.872-.173-.351-2.707-5.734-19.117-9.362L86 55.176z" transform="translate(0 1)"/><path fill="url(#p)" d="M73.584 31.404C70.494 31.23 63.846 31 58.19 31 6.18 31 .408 42.936.175 43.455A9.885 9.885 0 0 0 0 45.3V66c5.073-5.016 16.21-7.727 29.737-9.745 8.746-1.268 17.55-1.902 26.413-1.96h4.84c0 .058 15.742-22.776 12.594-22.891z" transform="translate(0 1)"/><path fill="url(#q)" d="M43.47 30c-10.94.522-18.882 1.333-25.47 3.13l.294.87c.588-.116 1.353-.29 1.941-.406C28.118 32.32 36.06 31.565 44 31.275L43.47 30z" opacity=".2" transform="translate(0 1)"/><path fill="url(#r)" d="M73.523 30.405c-3.088-.173-9.73-.405-15.38-.405C6.232 30 .465 41.98.232 42.502A7.145 7.145 0 0 0 0 44.412V66c5.069-5.035 16.196-8.566 29.712-10.592 8.739-1.273 17.536-1.91 26.391-1.967h4.836c2.388 0 15.73-22.862 12.584-23.036z" transform="translate(0 1)"/><path fill="url(#s)" d="M58 55.452C72.123 34.281 82.585 12.065 80.027 0L97.58 11.253c.523.348 1.046.754 1.453 1.218.29.464 7.265 11.833-20.982 55.22-2.092 3.19-4.01 6.961-4.707 7.309C68.578 70.244 58 55.452 58 55.452z" transform="translate(0 1)"/><path fill="url(#t)" d="M97.038 33C93.98 40.919 90.302 48.547 86 55.767l1.245.233C92.735 46.334 95.85 39.23 98 33.233L97.038 33z" opacity=".25" transform="translate(0 1)"/><path fill="url(#u)" d="M78.112 67.915c28.168-43.198 21.213-54.517 20.923-54.979-.405-.462-.927-.866-1.449-1.213L79.445 0C81.995 11.954 71.968 34.94 58 55.96c4.695 7.162 9.563 14.092 14.664 20.04.985-1.097 3.535-5.198 5.448-8.085z" transform="translate(0 1)"/><path fill="url(#v)" d="M72.77 77a.449.449 0 0 0 .23-.23A190.104 190.104 0 0 1 58.23 57c-.058.115-.173.23-.23.345 0 0 9.713 15.402 14.77 19.655z" transform="translate(0 1)"/><path fill="url(#w)" d="M58 95.371C57.769 95.086 47.487 83.086 42.75 76l-.75.857A170.103 170.103 0 0 0 57.422 96l.578-.629z" opacity=".2" transform="translate(0 1)"/><path fill="url(#x)" d="M72.814 77.297a190.663 190.663 0 0 1-14.89-19.82c-.521-.806-1.1-1.613-1.622-2.477-8.806.058-17.612.691-26.302 1.901.29.519 4.345 7.26 7.3 11.754 28.156 43.096 41.307 41.425 41.886 41.31a5.182 5.182 0 0 0 1.68-.864L99 97.405c-7.416-1.498-16.859-9.334-26.186-20.108z" transform="translate(0 1)"/><path fill="#000647" d="M179.991 88.376h4.017L182 83.616l-2.009 4.76zM185.546 92l-1.053-2.472h-4.987L178.454 92H177l4.39-10h1.205L187 92h-1.454zm16.974-5.112v4.567c-.424.209-.96.373-1.605.496a10.56 10.56 0 0 1-1.97.183c-1.02 0-1.9-.197-2.645-.59a3.995 3.995 0 0 1-1.704-1.707c-.391-.742-.586-1.63-.586-2.664 0-1.014.195-1.893.586-2.636a4.026 4.026 0 0 1 1.682-1.706c.731-.393 1.591-.59 2.581-.59.706 0 1.36.101 1.958.305.598.205 1.11.497 1.534.877l-.524 1.047c-.48-.381-.95-.653-1.413-.816a4.603 4.603 0 0 0-1.54-.244c-1.094 0-1.926.321-2.496.964-.57.645-.856 1.577-.856 2.799 0 1.26.293 2.214.877 2.862.584.647 1.447.971 2.588.971.762 0 1.498-.109 2.205-.326v-2.718h-2.347v-1.074h3.675zm10.363-4.538h1.372v9.676h-1.117l-5.769-7.313v7.313H206V82.35h1.102l5.782 7.325zm5.945 8.778c-.693-.67-1.038-1.652-1.038-2.949V82.35h1.427v5.925c0 .896.224 1.574.672 2.031.447.458 1.11.687 1.986.687.867 0 1.524-.23 1.972-.694.448-.462.672-1.137.672-2.024V82.35h1.442v5.83c0 1.296-.347 2.279-1.039 2.948-.693.67-1.708 1.006-3.047 1.006-1.338 0-2.353-.335-3.047-1.006m20.492-.733c.359-.426.537-1.024.537-1.794 0-.78-.178-1.389-.537-1.828-.359-.439-.857-.66-1.498-.66-.66 0-1.165.214-1.513.639-.35.426-.523 1.033-.523 1.822 0 .787.176 1.395.53 1.82.353.427.855.64 1.506.64.64 0 1.14-.213 1.498-.64m.467-4.932c.48.299.855.72 1.123 1.263.27.544.404 1.17.404 1.876 0 .707-.133 1.324-.396 1.854-.264.53-.637.94-1.118 1.23-.48.29-1.031.436-1.654.436-.545 0-1.025-.112-1.434-.334a2.156 2.156 0 0 1-.926-.958v4.132h-1.414v-7.855c0-.716-.038-1.359-.113-1.93h1.329l.141 1.264c.189-.453.495-.804.92-1.053.423-.25.923-.374 1.497-.374.613 0 1.16.15 1.64.449m9.014 4.926c.353-.43.53-1.036.53-1.814 0-.788-.177-1.395-.53-1.822-.355-.425-.856-.639-1.506-.639-.642 0-1.144.22-1.506.66-.364.44-.545 1.049-.545 1.827 0 .771.181 1.37.545 1.795.362.426.87.639 1.52.639.641 0 1.137-.215 1.491-.646zm1.943-5.212v6.85h-1.414v-1.169c-.208.408-.515.72-.926.938-.41.217-.888.326-1.435.326-.631 0-1.185-.145-1.661-.435-.476-.29-.846-.7-1.11-1.23-.263-.53-.396-1.148-.396-1.856 0-.706.135-1.33.404-1.874a3.03 3.03 0 0 1 1.123-1.264c.48-.3 1.028-.45 1.64-.45.547 0 1.023.112 1.429.335.404.222.716.535.932.944v-1.115h1.414zm4.559 6.51c-.533-.29-.94-.7-1.223-1.23-.282-.53-.423-1.149-.423-1.855 0-.707.148-1.332.445-1.876a3.14 3.14 0 0 1 1.251-1.263c.537-.3 1.164-.449 1.88-.449.5 0 .98.08 1.442.237.46.159.834.375 1.117.646l-.438.992c-.67-.506-1.344-.76-2.023-.76-.687 0-1.224.215-1.61.645-.388.43-.58 1.035-.58 1.814 0 .78.192 1.38.58 1.8.386.422.923.633 1.61.633.698 0 1.373-.254 2.023-.761l.438.992c-.302.272-.686.484-1.152.639a4.64 4.64 0 0 1-1.464.23c-.716 0-1.34-.144-1.873-.434m13.721.339h-1.825l-3.405-3.234v3.234h-1.415V82.023h1.415v6.252l3.166-3.085h1.767l-3.407 3.288zm6.566-1.637c.353-.43.53-1.036.53-1.814 0-.788-.177-1.395-.53-1.822-.355-.425-.856-.639-1.506-.639-.641 0-1.143.22-1.506.66-.363.44-.545 1.049-.545 1.827 0 .771.182 1.37.545 1.795.363.426.87.639 1.52.639.641 0 1.137-.215 1.492-.646zm1.943-5.212v6.85h-1.413v-1.169c-.209.408-.516.72-.927.938-.41.217-.888.326-1.435.326-.63 0-1.184-.145-1.661-.435-.476-.29-.846-.7-1.11-1.23-.263-.53-.395-1.148-.395-1.856 0-.706.135-1.33.403-1.874a3.03 3.03 0 0 1 1.124-1.264c.48-.3 1.027-.45 1.639-.45.547 0 1.023.112 1.43.335.403.222.715.535.932.944v-1.115h1.413zm7.946 4.933c.367-.408.55-.969.55-1.684 0-.716-.18-1.28-.543-1.694-.364-.412-.87-.617-1.52-.617-.642 0-1.148.205-1.52.617-.373.414-.559.978-.559 1.694 0 .706.186 1.265.558 1.678.373.412.88.618 1.52.618.642 0 1.146-.204 1.514-.612zm1.964-4.932v6.726c0 1.042-.284 1.828-.854 2.358-.571.53-1.417.795-2.539.795-1.083 0-2.03-.227-2.842-.68l.241-1.073c.444.226.87.394 1.28.502.41.11.845.163 1.307.163 1.33 0 1.994-.652 1.994-1.956V90.53a2.353 2.353 0 0 1-.947.945c-.415.231-.896.347-1.442.347-.623 0-1.177-.141-1.661-.422a2.889 2.889 0 0 1-1.131-1.196c-.269-.516-.404-1.109-.404-1.78 0-.67.135-1.264.404-1.78.269-.517.645-.917 1.13-1.203.485-.285 1.04-.428 1.662-.428.546 0 1.027.111 1.442.333.415.222.73.537.947.944v-1.113h1.413zm5.033 1.317c-.339.309-.555.747-.65 1.318h3.774c-.056-.58-.239-1.02-.55-1.324-.312-.304-.731-.456-1.259-.456-.537 0-.976.154-1.315.462zm4.383 2.134h-5.09c.047 1.603.806 2.406 2.276 2.406.821 0 1.57-.258 2.249-.776l.437.979c-.32.272-.727.487-1.221.646a4.87 4.87 0 0 1-1.493.238c-1.14 0-2.035-.315-2.686-.945-.65-.63-.975-1.492-.975-2.588 0-.698.143-1.32.431-1.862.287-.545.69-.966 1.21-1.265.517-.299 1.106-.448 1.766-.448.96 0 1.718.299 2.27.897.55.598.826 1.427.826 2.487v.23zm-127.41-59.272c2.933 0 5.075-.633 6.58-2.058 1.348-1.345 2.062-3.64 2.062-6.726 0-3.64-2.061-5.46-6.184-5.46-2.933 0-5.074.711-6.5 2.215-1.349 1.346-2.062 3.72-2.062 6.806 0 3.482 2.062 5.223 6.104 5.223"/><g transform="translate(126 34.932)"><mask id="z" fill="#fff"><use xlink:href="#y"/></mask><path fill="#000647" d="M165.695 25.049c0-.237 0-.554.079-.792l4.122-23.106H157.37l-4.36 24.847c0 .159-.079.317-.079.475-.873.475-1.903.712-2.933.712-1.428 0-2.22-.633-2.378-2.057 0-.238 0-.554.078-.791l1.824-10.92c.238-1.425.397-3.088.397-4.907 0-1.82-.477-3.482-1.428-4.985C147.064 1.309 143.813.28 138.9.28c-4.995 0-8.959 2.058-11.892 6.252-.792-4.194-4.44-6.252-10.861-6.252-4.598 0-8.323 1.82-11.258 5.46l.793-4.353H94.106l-4.518 25.324c-.872.395-1.902.712-3.171.712s-1.903-.633-1.903-1.9c0-.395.08-.633.08-.949l4.122-23.107H77.46l-.397 2.216C75.476 1.626 72.385.518 67.866.518c-4.52 0-8.245 1.265-11.02 3.956-2.854 2.611-4.598 6.173-5.391 10.604l-1.348 7.28c-1.981 1.108-3.884 2.295-5.707 3.403.078-.475.158-.95.237-1.424l3.964-22.95H36.076l-5.709 33C18.793 42.933 10.865 50.134 6.584 56.069 2.304 62.004.083 67.543.004 72.925c-.08 3.798 1.03 6.884 3.33 9.337 2.299 2.374 5.391 3.64 9.275 3.8 8.087.236 14.746-5.224 19.978-16.382 3.964-8.547 7.135-19.309 9.83-32.524 2.616-1.978 5.232-3.957 7.77-5.777 1.347 4.353 5.153 6.489 11.496 6.489 4.834 0 8.402-1.978 10.86-5.934.555 3.956 3.567 5.934 8.958 5.934 2.38 0 4.519-.633 6.502-1.82l-.159.871h12.526l4.122-23.344c1.586-1.663 3.41-2.454 5.47-2.454 2.617 0 4.044 1.187 4.044 3.562 0 .95 0 1.74-.16 2.61l-3.488 19.626h12.526l4.044-22.711c1.585-1.979 3.567-3.008 6.104-3.008s3.805 1.187 3.805 3.562c0 .949 0 1.74-.159 2.61l-1.585 9.021c-.158 1.188-.237 2.217-.237 3.167 0 5.539 3.408 8.387 10.068 8.387 1.823 0 3.567-.395 5.153-1.186.08 0 .08-.08.158-.08a15.14 15.14 0 0 0 3.648-2.453c.079.159.158.395.316.554 1.269 2.058 4.202 3.086 8.642 3.086 2.933 0 5.549-.949 7.848-2.848l.396-8.31a6.5 6.5 0 0 1-3.012.713c-1.585-.238-2.3-.95-2.378-2.374zM20.615 68.335c-2.456 4.352-4.597 6.489-6.58 6.41-2.06-.079-3.09-1.504-3.012-4.431.08-3.007 1.428-6.41 4.044-10.289 2.616-3.876 6.818-8.15 12.605-12.818-2.3 9.733-4.677 16.776-7.056 21.128zM71.91 24.89c-1.269 1.346-2.854 2.058-4.599 2.058-1.743 0-3.012-.475-3.725-1.187-.713-.712-1.11-1.424-1.11-2.295 0-.712.079-1.345.158-1.82l.952-5.54c.633-3.64 2.932-5.46 6.659-5.46 1.982 0 3.25.634 3.805 1.82L71.91 24.89z" mask="url(#z)"/></g><path fill="#000647" d="M293.518 15.112c-2.933 0-5.074.712-6.5 2.215-1.348 1.345-2.061 3.72-2.061 6.806 0 3.481 1.98 5.302 6.103 5.302 3.013 0 5.233-.634 6.58-2.057 1.348-1.346 2.061-3.64 2.061-6.727 0-3.64-2.14-5.54-6.183-5.54"/></g></svg>